<svg width="24" height="24" viewBox="0 0 24 24" fill="none" xmlns="http://www.w3.org/2000/svg">
<path fill-rule="evenodd" clip-rule="evenodd" d="M3 3V5H5V3H3ZM1.75 1C1.33579 1 1 1.33579 1 1.75V6.25C1 6.66421 1.33579 7 1.75 7H6.25C6.66421 7 7 6.66421 7 6.25V1.75C7 1.33579 6.66421 1 6.25 1H1.75Z" fill="#222222"/>
<path fill-rule="evenodd" clip-rule="evenodd" d="M3 11V13H5V11H3ZM1.75 9C1.33579 9 1 9.33579 1 9.75V14.25C1 14.6642 1.33579 15 1.75 15H6.25C6.66421 15 7 14.6642 7 14.25V9.75C7 9.33579 6.66421 9 6.25 9H1.75Z" fill="#222222"/>
<path fill-rule="evenodd" clip-rule="evenodd" d="M3 19V21H5V19H3ZM1.75 17C1.33579 17 1 17.3358 1 17.75V22.25C1 22.6642 1.33579 23 1.75 23H6.25C6.66421 23 7 22.6642 7 22.25V17.75C7 17.3358 6.66421 17 6.25 17H1.75Z" fill="#222222"/>
<path fill-rule="evenodd" clip-rule="evenodd" d="M11 3V5H13V3H11ZM9.75 1C9.33579 1 9 1.33579 9 1.75V6.25C9 6.66421 9.33579 7 9.75 7H14.25C14.6642 7 15 6.66421 15 6.25V1.75C15 1.33579 14.6642 1 14.25 1H9.75Z" fill="#222222"/>
<path fill-rule="evenodd" clip-rule="evenodd" d="M11 11V13H13V11H11ZM9.75 9C9.33579 9 9 9.33579 9 9.75V14.25C9 14.6642 9.33579 15 9.75 15H14.25C14.6642 15 15 14.6642 15 14.25V9.75C15 9.33579 14.6642 9 14.25 9H9.75Z" fill="#222222"/>
<path fill-rule="evenodd" clip-rule="evenodd" d="M11 19V21H13V19H11ZM9.75 17C9.33579 17 9 17.3358 9 17.75V22.25C9 22.6642 9.33579 23 9.75 23H14.25C14.6642 23 15 22.6642 15 22.25V17.75C15 17.3358 14.6642 17 14.25 17H9.75Z" fill="#222222"/>
<path fill-rule="evenodd" clip-rule="evenodd" d="M19 3V5H21V3H19ZM17.75 1C17.3358 1 17 1.33579 17 1.75V6.25C17 6.66421 17.3358 7 17.75 7H22.25C22.6642 7 23 6.66421 23 6.25V1.75C23 1.33579 22.6642 1 22.25 1H17.75Z" fill="#222222"/>
<path fill-rule="evenodd" clip-rule="evenodd" d="M19 11V13H21V11H19ZM17.75 9C17.3358 9 17 9.33579 17 9.75V14.25C17 14.6642 17.3358 15 17.75 15H22.25C22.6642 15 23 14.6642 23 14.25V9.75C23 9.33579 22.6642 9 22.25 9H17.75Z" fill="#222222"/>
<path fill-rule="evenodd" clip-rule="evenodd" d="M19 19V21H21V19H19ZM17.75 17C17.3358 17 17 17.3358 17 17.75V22.25C17 22.6642 17.3358 23 17.75 23H22.25C22.6642 23 23 22.6642 23 22.25V17.75C23 17.3358 22.6642 17 22.25 17H17.75Z" fill="#222222"/>
</svg>
