
<svg width="24" height="24" viewBox="0 0 24 24" fill="none" xmlns="http://www.w3.org/2000/svg">
<path fill-rule="evenodd" clip-rule="evenodd" d="M4 4V9H9V4H4ZM2.75 2C2.33579 2 2 2.33579 2 2.75V10.25C2 10.6642 2.33579 11 2.75 11H10.25C10.6642 11 11 10.6642 11 10.25V2.75C11 2.33579 10.6642 2 10.25 2H2.75Z" fill="#222222"/>
<path fill-rule="evenodd" clip-rule="evenodd" d="M4 15V20H9V15H4ZM2.75 13C2.33579 13 2 13.3358 2 13.75V21.25C2 21.6642 2.33579 22 2.75 22H10.25C10.6642 22 11 21.6642 11 21.25V13.75C11 13.3358 10.6642 13 10.25 13H2.75Z" fill="#222222"/>
<path fill-rule="evenodd" clip-rule="evenodd" d="M15 4V9H20V4H15ZM13.75 2C13.3358 2 13 2.33579 13 2.75V10.25C13 10.6642 13.3358 11 13.75 11H21.25C21.6642 11 22 10.6642 22 10.25V2.75C22 2.33579 21.6642 2 21.25 2H13.75Z" fill="#222222"/>
<path fill-rule="evenodd" clip-rule="evenodd" d="M15 15V20H20V15H15ZM13.75 13C13.3358 13 13 13.3358 13 13.75V21.25C13 21.6642 13.3358 22 13.75 22H21.25C21.6642 22 22 21.6642 22 21.25V13.75C22 13.3358 21.6642 13 21.25 13H13.75Z" fill="#222222"/>
</svg>
